<svg xmlns="http://www.w3.org/2000/svg" width="30" height="30" viewBox="0 0 30 30" fill="none">
<path fill-rule="evenodd" clip-rule="evenodd" d="M2.9054 0C1.30079 0 0 1.30079 0 2.9054V20.1021C2.38785 14.0608 6.74939 7.63786 11.6215 5.81079C12.7015 5.35879 15.4537 4.89536 17.8233 6.65761C17.6908 6.82689 17.5574 6.99874 17.423 7.17291C16.8561 7.99958 16.0943 8.93987 15.3336 9.87884C13.8387 11.7241 12.3479 13.5642 12.3479 14.527C12.3479 15.6813 14.7206 17.6277 17.0895 19.5712C17.7019 20.0735 18.3143 20.5759 18.8851 21.0641C17.1791 22.7524 10.6159 26.2603 9.57928 29.054H26.1486C27.7532 29.054 29.054 27.7532 29.054 26.1486V2.9054C29.054 1.30079 27.7532 0 26.1486 0H2.9054ZM24.1474 1.4527C25.8285 1.4527 26.4732 3.84867 25.8285 6.35555C25.3658 8.15493 24.8181 10.0369 24.3258 11.7287C23.9239 13.1099 23.5587 14.3648 23.3069 15.3441C24.988 17.7956 28.182 22.8618 27.5096 23.5155C23.475 24.1693 21.7904 22.5168 15.2533 14.527C14.9391 12.3922 22.4663 1.4527 24.1474 1.4527Z" fill="currentColor"/>
<path d="M10.1689 13.8006C10.1689 15.0041 9.19329 15.9797 7.98984 15.9797C6.78638 15.9797 5.81079 15.0041 5.81079 13.8006C5.81079 12.5972 6.78638 11.6216 7.98984 11.6216C9.19329 11.6216 10.1689 12.5972 10.1689 13.8006Z" fill="currentColor"/>
<script xmlns=""/></svg>