<svg xmlns="http://www.w3.org/2000/svg" viewBox="0 0 33 21" width="33" height="21" fill="none">
  <path d="M27.6939 0.698856L27.0853 2.88004C27.0531 2.99552 26.9315 3.06224 26.8157 3.02799L16.6072 0.00893058C16.5393 -0.0111487 16.4658 0.00308892 16.4106 0.047029L6.30049 8.08333C6.27097 8.10679 6.23575 8.12215 6.19836 8.12786L0.18292 9.04674C0.0715357 9.06375 -0.0078759 9.16286 0.000622655 9.27425L0.0267609 9.61687C0.035109 9.72631 0.125665 9.81172 0.236347 9.81456L7.22353 9.99359L7.30322 9.9958L12.4661 7.2622C12.5383 7.22393 12.6263 7.22955 12.693 7.27669L16.3507 9.86111C16.408 9.90164 16.4418 9.96737 16.4412 10.0372L16.4103 13.4664C16.4099 13.5108 16.4235 13.5542 16.4491 13.5906L21.5943 20.9084C21.6346 20.9658 21.7007 21 21.7713 21H23.4001C23.5626 21 23.6668 20.8287 23.5909 20.6863L19.9237 13.8002C19.8878 13.7328 19.8908 13.6516 19.9315 13.5871L21.8435 10.551C21.8643 10.5179 21.8939 10.4912 21.9289 10.4735L28.7648 7.03514C28.8342 7.00021 28.9173 7.00508 28.9821 7.0479L30.9355 8.33851C30.971 8.36193 31.0126 8.37442 31.0552 8.37442H32.83C33.0019 8.37442 33.1047 8.18497 33.0101 8.04276L28.082 0.63809C27.98 0.484786 27.7433 0.521844 27.6939 0.698856Z" fill="currentColor"/>
</svg>
